<svg width="37" height="36" viewBox="0 0 37 36" fill="none" xmlns="http://www.w3.org/2000/svg">
<path d="M21.4034 6.07328C20.672 6.19554 20.5209 7.25769 20.152 7.85556C19.3847 9.09887 18.2191 9.6938 16.8699 10.1363C16.4678 10.268 15.6704 10.3213 15.4234 10.6403C14.9063 11.308 15.5318 12.7085 14.9202 13.4594C14.1942 14.3503 12.8439 13.2407 12.0482 12.9336C6.99885 10.9839 1.25218 13.5911 0.2137 19.0533C-0.709832 23.9103 1.34521 29.0894 6.66686 29.8665C11.2309 30.5329 15.5206 28.7298 16.4733 23.8943C16.5808 23.3498 16.816 22.6117 16.0408 22.5199L12.1696 22.5534C11.599 22.823 11.6215 23.4524 11.4135 23.9644C10.9888 25.0099 10.0974 25.789 8.9493 25.9069C4.15954 26.3978 3.56745 17.6113 7.76533 16.563C9.29612 16.1808 10.6773 16.7849 11.2691 18.262C11.5575 18.9822 11.3782 19.6232 12.3513 19.7079C13.0352 19.7676 15.3494 19.8095 15.9503 19.6884C16.6587 19.5456 16.4259 18.7762 16.3307 18.2581C16.1644 17.352 15.424 16.0346 16.3692 15.3407C16.7776 15.0409 18.7901 14.4446 19.2926 14.504C20.0072 14.5887 20.2013 15.3061 20.2651 15.9146L20.3004 28.9507C20.4039 29.3035 20.6812 29.4165 21.0245 29.4544C21.8194 29.5425 23.5396 29.5257 24.3512 29.4566C25.001 29.4013 25.199 29.2036 25.2543 28.5539L25.2492 16.7774C25.4007 15.0127 26.8235 15.2726 28.1292 14.9619C29.4684 14.6434 30.865 13.748 31.1035 15.9146L31.1388 28.9507C31.2423 29.3035 31.5195 29.4165 31.8629 29.4544C32.6428 29.5409 34.4709 29.5328 35.258 29.4532C35.9267 29.3855 36.0478 29.1081 36.0932 28.4824V7.02779C36.0549 6.50789 36.0006 6.12531 35.4054 6.0542C34.7286 5.97338 33.1348 5.99138 32.4382 6.053C31.4601 6.13948 31.4896 6.98536 31.0697 7.71837C30.32 9.02645 28.5719 10.1115 27.0759 10.2983C24.6879 10.5964 25.3955 8.33663 25.2509 6.88732C25.2039 6.41519 25.0829 6.11593 24.567 6.05431C23.9696 5.98298 21.9765 5.97731 21.4034 6.07328Z" fill="#198AEC"/>
</svg>
