<svg width="1222" height="297" viewBox="0 0 1222 297" fill="none" xmlns="http://www.w3.org/2000/svg">
<path d="M1212.44 0.0394927C1204.14 0.0394927 1183.35 -0.0493659 1175.14 0.0394927C1173.25 0.0617073 1170.18 -0.123415 1166.89 1.86109C1162.54 4.48242 1160.85 11.169 1159 16.3228C1155.16 27.0229 1145.05 36.9158 1132.83 43.5432C1123.67 48.5044 1108.68 53.1547 1101.46 50.6741C1087.29 45.7943 1090.64 33.6354 1089.93 8.20708C1089.81 3.67529 1085.97 0.0394927 1081.15 0.0394927C1070.49 0.0394927 1050.83 0.00246829 1040.61 0.0394927C1031.57 0.0691122 1030.54 9.66584 1027.59 16.3228C1019.63 34.2426 1004.01 44.3651 985.551 49.6596C980.967 50.9777 975.502 51.8514 971.155 53.288C965.067 55.3021 963.712 58.2641 963.727 64.2398C963.749 75.4064 963.557 94.0371 963.483 105.737C963.431 114.23 967.97 116.311 975.509 115.904C979.59 115.682 985.773 114.682 989.787 113.734C997.4 111.942 1005.66 108.343 1013.02 109.424C1019.58 110.394 1024.53 115.963 1024.53 125.508C1024.53 178.63 1024.62 229.021 1024.85 281.292C1025.25 285.794 1028.19 288.556 1032.55 289.163L1081.27 289.178C1084.39 288.934 1086.7 287.978 1088.23 285.764C1089.13 284.454 1090.09 281.921 1090.08 280.033C1090 233.937 1090.16 183.347 1090.22 135.379C1091.51 115.578 1105.6 117.14 1120.53 113.949C1135.08 110.839 1153.07 101.368 1156.05 124.456C1156.55 176.757 1156.24 229.021 1156.48 281.292C1156.88 285.779 1159.8 288.556 1164.17 289.163C1164.17 289.163 1198.05 289.163 1213.75 289.163C1216.4 289.163 1221.78 286.705 1221.82 280.359C1222.19 219.305 1221.86 9.27338 1221.86 9.27338C1221.86 3.05328 1216.46 0.0543025 1212.41 0.0543025L1212.44 0.0394927Z" fill="url(#paint0_linear_300_852)"/>
<path d="M922.813 0.0731572L876.824 0.0509426C872.514 0.0509426 867.775 3.09435 867.775 8.15929V8.18891C867.767 21.5473 867.753 47.8939 867.775 60.497C867.856 92.3528 842.322 77.8688 825.896 76.9136C793.645 75.0402 762.371 88.2653 743.08 115.819C738.451 122.431 731.179 139.477 723.581 141.684C719.219 142.95 716.886 140.647 714.043 137.56C708.851 131.939 711.428 102.564 710.436 90.6423C710.436 85.5773 705.697 82.5265 701.394 82.5265L663.729 82.5117C661.907 82.4451 660.071 82.4377 658.234 82.5117H655.568C651.762 82.5117 647.629 84.8813 646.704 88.9317C646.356 90.0869 646.185 91.405 646.185 92.9156V204.129C646.185 220.428 637.817 236.548 620.451 239.777C598.412 243.871 587.422 225.07 587.422 206.181V93.3747C587.355 92.4194 587.311 91.4642 587.185 90.6423C587.185 85.5773 582.446 82.5265 578.143 82.5265L531.947 82.5043C527.637 82.5043 522.897 85.5477 522.897 90.6126V90.6423C521.942 105.622 524.971 140.677 518.269 149.785C511.759 158.626 504.102 148.052 501.155 142.491C495.593 131.984 492.142 123.675 484.729 114.205C445.08 63.533 361.078 65.6878 323.31 109.769C317.022 117.107 312.727 123.898 307.447 132.258C304.359 137.16 297.057 142.61 291.54 138.87C286.045 135.146 285.349 124.357 285.349 118.329C285.349 82.1118 285.349 44.1618 285.179 8.1741C285.179 3.10916 280.439 0.0583475 276.136 0.0583475L230.059 0.0361328C225.749 0.0361328 221.009 3.07954 221.009 8.14448V8.1741C221.009 43.9397 221.009 84.7554 221.076 122.668C221.083 127.296 220.632 130.954 219.565 135.612C217.595 144.18 212.493 151.903 204.421 143.061C199.578 137.76 196.912 130.229 193.468 123.994C178.249 96.4847 155.581 81.9267 124.737 77.854C58.5088 69.1163 5.42561 108.192 0.175056 175.71C-0.0693282 178.834 -0.0471115 191.978 0.175056 197.169C2.01164 239.784 26.4648 288.693 89.0197 295.291C126.921 299.29 168.459 288.39 190.202 255.268C194.668 248.47 199.163 235.563 206.435 231.031C211.812 227.684 218.069 230.646 219.676 241.117C221.735 254.52 220.987 268.093 220.987 281.673C220.987 285.057 224.697 289.167 228.074 289.175C243.915 289.212 261.17 289.374 277.032 289.175C281.942 289.115 284.734 285.835 285.075 280.829C286.208 264.435 282.631 243.183 290.822 235.704C293.85 232.942 297.035 233.26 300.486 235.119C307.462 238.873 311.809 249.336 316.474 255.756C356.531 310.923 451.478 309.671 489.572 252.276C494.927 244.212 498.178 235.771 502.265 227.61C504.228 223.686 510.7 216.074 516.825 220.161C523.675 224.722 524.86 235.985 527.193 243.272C540.419 284.687 576.677 302.126 618.14 293.98C623.695 292.892 628.057 291.218 633.633 290.152C644.253 288.13 680.577 289.315 702.601 289.167C708.2 289.13 710.066 285.168 710.621 279.859C711.821 268.374 707.874 244.131 715.524 235.489C721.589 228.64 729.328 236.63 732.601 241.88C736.385 247.952 739.577 254.364 743.687 260.162C763.941 288.708 800.34 300.304 834.516 294.721C843.151 293.306 851.275 289.93 860.095 289.374C871.744 288.641 903.329 289.863 924.472 289.034C928.952 288.856 931.618 284.783 931.841 280.4V8.18891C931.841 3.12397 927.108 0.0731572 922.798 0.0731572H922.813ZM211.878 197.406C203.465 202.36 178.472 198.902 151.301 200.22C139.689 200.782 141.688 211.423 138.267 219.843C131.543 236.4 115.487 244.108 97.9879 240.554C52.5621 231.305 53.199 136.745 101.639 131.813C117.924 130.155 131.046 136.849 136.837 152.48C139.415 159.448 138.089 170.311 147.776 170.689C163.631 171.304 188.388 170.726 196.712 170.896C202.525 171.015 208.931 171.274 213.596 175.065C221.95 181.848 218.714 193.378 211.863 197.413L211.878 197.406ZM437.711 215.252C424.122 250.069 379.555 250.78 365.966 215.688C355.48 188.616 360.767 135.582 397.366 132.036C441.029 127.8 449.878 184.084 437.719 215.252H437.711ZM831.162 241.221C776.272 244.168 773.361 136.938 826.007 132.043C883.186 126.726 884.556 238.355 831.162 241.221Z" fill="url(#paint1_linear_300_852)"/>
<defs>
<linearGradient id="paint0_linear_300_852" x1="1326.28" y1="-94.0002" x2="973.736" y2="276.709" gradientUnits="userSpaceOnUse">
<stop stop-color="#C3E3FF"/>
<stop offset="0.3" stop-color="#198AEC"/>
<stop offset="0.6" stop-color="#C3E3FF"/>
<stop offset="1" stop-color="#198AEC"/>
</linearGradient>
<linearGradient id="paint1_linear_300_852" x1="933.164" y1="14.8147" x2="7.72365" y2="91.344" gradientUnits="userSpaceOnUse">
<stop stop-color="#C3E3FF"/>
<stop offset="0.2" stop-color="#198AEC"/>
<stop offset="0.4" stop-color="#C3E3FF"/>
<stop offset="0.6" stop-color="#198AEC"/>
<stop offset="0.8" stop-color="#C3E3FF" stop-opacity="0.890196"/>
<stop offset="1" stop-color="#198AEC"/>
</linearGradient>
</defs>
</svg>
