<svg width="28" height="28" viewBox="0 0 28 28" fill="none" xmlns="http://www.w3.org/2000/svg">
<path d="M16.0886 6.5788C15.6336 6.65487 15.5396 7.31577 15.31 7.68778C14.8326 8.46139 14.1073 8.83156 13.2678 9.10687C13.0176 9.18885 12.5215 9.22203 12.3678 9.42053C12.0461 9.83597 12.4352 10.7074 12.0547 11.1746C11.6029 11.7289 10.7627 11.0385 10.2676 10.8474C7.12584 9.63429 3.55013 11.2566 2.90397 14.6553C2.32932 17.6774 3.60802 20.8999 6.91927 21.3834C9.75909 21.7981 12.4282 20.6762 13.0211 17.6674C13.0879 17.3286 13.2343 16.8694 12.7519 16.8122L10.3432 16.8331C9.98812 17.0009 10.0022 17.3925 9.87276 17.711C9.60844 18.3616 9.05382 18.8463 8.33945 18.9197C5.35916 19.2251 4.99074 13.758 7.60276 13.1058C8.55525 12.8679 9.41463 13.2438 9.78291 14.1629C9.96233 14.611 9.85077 15.0099 10.4562 15.0626C10.8818 15.0997 12.3217 15.1258 12.6956 15.0504C13.1364 14.9616 12.9916 14.4828 12.9323 14.1604C12.8288 13.5967 12.3681 12.777 12.9563 12.3452C13.2104 12.1586 14.4626 11.7876 14.7753 11.8245C15.2199 11.8773 15.3407 12.3237 15.3804 12.7023L15.4024 20.8136C15.4668 21.0331 15.6393 21.1034 15.8529 21.1271C16.3475 21.1819 17.4179 21.1714 17.9228 21.1284C18.3272 21.094 18.4504 20.971 18.4848 20.5667L18.4816 13.2392C18.5759 12.1411 19.4612 12.3028 20.2736 12.1095C21.1069 11.9113 21.9759 11.3542 22.1243 12.7023L22.1463 20.8136C22.2107 21.0331 22.3831 21.1034 22.5968 21.1271C23.0821 21.1809 24.2195 21.1759 24.7093 21.1263C25.1254 21.0842 25.2007 20.9116 25.229 20.5222V7.17272C25.2052 6.84922 25.1714 6.61117 24.801 6.56693C24.3799 6.51664 23.3882 6.52784 22.9548 6.56618C22.3462 6.61999 22.3645 7.14632 22.1032 7.60241C21.6368 8.41633 20.549 9.09147 19.6182 9.20772C18.1323 9.39318 18.5727 7.98711 18.4827 7.08531C18.4534 6.79154 18.3781 6.60533 18.0571 6.56699C17.6854 6.52261 16.4452 6.51908 16.0886 6.5788Z" fill="black"/>
</svg>
