<svg width="45" height="45" viewBox="0 0 45 45" fill="none" xmlns="http://www.w3.org/2000/svg">
<path d="M25.857 10.5733C25.1256 10.6955 24.9746 11.7577 24.6056 12.3556C23.8383 13.5989 22.6727 14.1938 21.3235 14.6363C20.9214 14.768 20.124 14.8213 19.877 15.1403C19.36 15.808 19.9854 17.2085 19.3738 17.9594C18.6478 18.8503 17.2975 17.7407 16.5018 17.4336C11.4525 15.4839 5.7058 18.0911 4.66731 23.5533C3.74378 28.4103 5.79883 33.5894 11.1205 34.3665C15.6845 35.0329 19.9742 33.2298 20.927 28.3943C21.0344 27.8498 21.2696 27.1117 20.4944 27.0199L16.6232 27.0534C16.0526 27.323 16.0751 27.9524 15.8672 28.4644C15.4424 29.5099 14.551 30.289 13.4029 30.4069C8.61316 30.8978 8.02106 22.1113 12.2189 21.063C13.7497 20.6808 15.1309 21.2849 15.7228 22.762C16.0111 23.4822 15.8318 24.1232 16.8049 24.2079C17.4888 24.2676 19.803 24.3095 20.4039 24.1884C21.1124 24.0456 20.8795 23.2762 20.7843 22.7581C20.618 21.852 19.8776 20.5346 20.8228 19.8407C21.2312 19.5409 23.2437 18.9446 23.7462 19.004C24.4608 19.0887 24.6549 19.8061 24.7187 20.4146L24.754 33.4507C24.8575 33.8035 25.1348 33.9165 25.4781 33.9544C26.273 34.0425 27.9933 34.0257 28.8048 33.9566C29.4546 33.9013 29.6526 33.7036 29.7079 33.0539L29.7028 21.2774C29.8543 19.5127 31.2771 19.7726 32.5828 19.4619C33.9221 19.1434 35.3186 18.248 35.5571 20.4146L35.5924 33.4507C35.6959 33.8035 35.9731 33.9165 36.3165 33.9544C37.0964 34.0409 38.9245 34.0328 39.7116 33.9532C40.3804 33.8855 40.5014 33.6081 40.5468 32.9824V11.5278C40.5085 11.0079 40.4542 10.6253 39.859 10.5542C39.1822 10.4734 37.5884 10.4914 36.8918 10.553C35.9137 10.6395 35.9432 11.4854 35.5233 12.2184C34.7736 13.5264 33.0255 14.6115 31.5295 14.7983C29.1415 15.0964 29.8492 12.8366 29.7045 11.3873C29.6575 10.9152 29.5365 10.6159 29.0206 10.5543C28.4232 10.483 26.4301 10.4773 25.857 10.5733Z" fill="black"/>
</svg>
