<svg width="120" height="32" viewBox="0 0 120 32" fill="none" xmlns="http://www.w3.org/2000/svg">
<path d="M119.061 1.45841C118.246 1.45841 116.205 1.44968 115.399 1.45841C115.212 1.46059 114.911 1.44241 114.588 1.63729C114.162 1.8947 113.995 2.55132 113.813 3.05743C113.437 4.10817 112.444 5.07965 111.243 5.73045C110.344 6.21765 108.872 6.6743 108.163 6.43071C106.772 5.95151 107.101 4.75752 107.031 2.26046C107.019 1.81544 106.642 1.45841 106.169 1.45841C105.121 1.45841 103.191 1.45477 102.188 1.45841C101.3 1.46132 101.199 2.40371 100.909 3.05743C100.128 4.81715 98.5932 5.81117 96.7809 6.33109C96.3308 6.46052 95.7941 6.54632 95.3672 6.68739C94.7694 6.88518 94.6364 7.17604 94.6378 7.76286C94.64 8.85941 94.6211 10.6889 94.6138 11.8378C94.6087 12.6719 95.0545 12.8762 95.7948 12.8362C96.1955 12.8144 96.8028 12.7163 97.1969 12.6232C97.9445 12.4472 98.7554 12.0938 99.4782 12.2C100.123 12.2952 100.609 12.842 100.609 13.7794C100.609 18.996 100.617 23.9443 100.64 29.0773C100.68 29.5194 100.968 29.7906 101.396 29.8503L106.18 29.8517C106.486 29.8277 106.714 29.7339 106.864 29.5165C106.953 29.3878 107.046 29.1391 107.046 28.9537C107.038 24.4271 107.054 19.4592 107.06 14.7487C107.186 12.8042 108.57 12.9577 110.036 12.6443C111.465 12.3389 113.232 11.4088 113.524 13.6761C113.573 18.812 113.543 23.9443 113.566 29.0773C113.605 29.5179 113.892 29.7906 114.322 29.8503C114.322 29.8503 117.649 29.8503 119.19 29.8503C119.45 29.8503 119.979 29.6088 119.982 28.9857C120.019 22.9903 119.987 2.36517 119.987 2.36517C119.987 1.75436 119.457 1.45986 119.059 1.45986L119.061 1.45841Z" fill="url(#paint0_linear_341_1748)"/>
<path d="M90.62 1.4617L86.1039 1.45952C85.6806 1.45952 85.2152 1.75838 85.2152 2.25576V2.25867C85.2145 3.57046 85.213 6.15769 85.2152 7.39531C85.2232 10.5235 82.7157 9.10122 81.1028 9.00741C77.9357 8.82344 74.8646 10.1221 72.9702 12.8279C72.5157 13.4772 71.8016 15.1512 71.0554 15.3679C70.6271 15.4922 70.398 15.2661 70.1188 14.9628C69.609 14.4109 69.8621 11.5263 69.7646 10.3556C69.7646 9.85819 69.2992 9.5586 68.8767 9.5586L65.178 9.55714C64.9991 9.5506 64.8187 9.54987 64.6384 9.55714H64.3766C64.0028 9.55714 63.597 9.78983 63.5061 10.1876C63.4719 10.301 63.4552 10.4305 63.4552 10.5788V21.5C63.4552 23.1004 62.6334 24.6835 60.9281 25.0005C58.7639 25.4026 57.6847 23.5564 57.6847 21.7014V10.6239C57.6781 10.5301 57.6738 10.4363 57.6614 10.3556C57.6614 9.85819 57.196 9.5586 56.7735 9.5586L52.237 9.55642C51.8138 9.55642 51.3484 9.85528 51.3484 10.3527V10.3556C51.2545 11.8266 51.552 15.269 50.8938 16.1634C50.2546 17.0316 49.5027 15.9932 49.2132 15.4471C48.6671 14.4153 48.3282 13.5994 47.6002 12.6694C43.7067 7.69344 35.4578 7.90504 31.7489 12.2338C31.1315 12.9544 30.7097 13.6212 30.1912 14.4422C29.888 14.9236 29.1709 15.4588 28.6291 15.0915C28.0895 14.7258 28.0212 13.6663 28.0212 13.0744C28.0212 9.51788 28.0212 5.7912 28.0044 2.25721C28.0044 1.75984 27.539 1.46025 27.1165 1.46025L22.5917 1.45807C22.1685 1.45807 21.703 1.75693 21.703 2.25431V2.25721C21.703 5.76938 21.703 9.77747 21.7096 13.5005C21.7103 13.955 21.6659 14.3142 21.5612 14.7716C21.3678 15.6129 20.8667 16.3713 20.0741 15.5031C19.5984 14.9825 19.3366 14.2429 18.9985 13.6307C17.504 10.9293 15.278 9.4997 12.2491 9.09976C5.74554 8.24172 0.532793 12.0789 0.0171904 18.7091C-0.00680801 19.016 -0.00462633 20.3067 0.0171904 20.8164C0.197542 25.0012 2.59884 29.8041 8.74171 30.452C12.4636 30.8447 16.5426 29.7743 18.6778 26.5217C19.1163 25.8542 19.5577 24.5868 20.2719 24.1417C20.7998 23.8131 21.4143 24.1039 21.5721 25.1321C21.7743 26.4483 21.7009 27.7812 21.7009 29.1148C21.7009 29.4471 22.0652 29.8506 22.3968 29.8514C23.9523 29.855 25.6468 29.871 27.2045 29.8514C27.6866 29.8456 27.9608 29.5234 27.9943 29.0319C28.1055 27.4219 27.7543 25.335 28.5586 24.6006C28.856 24.3293 29.1687 24.3606 29.5076 24.5431C30.1927 24.9118 30.6195 25.9393 31.0777 26.5697C35.0113 31.987 44.335 31.8641 48.0758 26.2279C48.6016 25.4361 48.9209 24.6071 49.3223 23.8058C49.515 23.4204 50.1506 22.6729 50.752 23.0743C51.4247 23.5222 51.5411 24.6282 51.7702 25.3437C53.069 29.4107 56.6295 31.1232 60.7012 30.3233C61.2466 30.2164 61.675 30.0521 62.2226 29.9474C63.2654 29.7488 66.8324 29.8652 68.9952 29.8506C69.545 29.847 69.7282 29.458 69.7828 28.9366C69.9006 27.8088 69.513 25.4281 70.2642 24.5795C70.8598 23.9069 71.6198 24.6915 71.9412 25.207C72.3128 25.8033 72.6262 26.433 73.0298 27.0024C75.0188 29.8056 78.5931 30.9443 81.9493 30.396C82.7972 30.2571 83.595 29.9255 84.4611 29.871C85.605 29.799 88.7066 29.919 90.7828 29.8376C91.2228 29.8201 91.4846 29.4202 91.5064 28.9897V2.25867C91.5064 1.76129 91.0417 1.4617 90.6185 1.4617H90.62ZM20.8064 20.8397C19.9802 21.3262 17.5259 20.9866 14.8577 21.116C13.7174 21.1713 13.9137 22.2162 13.5778 23.043C12.9174 24.6689 11.3408 25.4259 9.62238 25.0769C5.16158 24.1686 5.22412 14.8828 9.9809 14.3986C11.5801 14.2357 12.8687 14.893 13.4374 16.4281C13.6905 17.1123 13.5603 18.179 14.5115 18.2161C16.0685 18.2765 18.4996 18.2198 19.317 18.2365C19.8879 18.2481 20.5169 18.2736 20.9751 18.6459C21.7954 19.312 21.4776 20.4441 20.8049 20.8404L20.8064 20.8397ZM42.9831 22.5922C41.6486 26.0113 37.2722 26.0811 35.9377 22.6351C34.908 19.9766 35.4272 14.7687 39.0212 14.4204C43.3089 14.0044 44.1779 19.5316 42.9838 22.5922H42.9831ZM81.6198 25.1423C76.2296 25.4317 75.9438 14.9017 81.1137 14.4211C86.7286 13.899 86.8631 24.8609 81.6198 25.1423Z" fill="url(#paint1_linear_341_1748)"/>
<defs>
<linearGradient id="paint0_linear_341_1748" x1="130.24" y1="-7.77626" x2="95.6207" y2="28.6273" gradientUnits="userSpaceOnUse">
<stop stop-color="#C3E3FF"/>
<stop offset="0.3" stop-color="#198AEC"/>
<stop offset="0.6" stop-color="#C3E3FF"/>
<stop offset="1" stop-color="#198AEC"/>
</linearGradient>
<linearGradient id="paint1_linear_341_1748" x1="91.6364" y1="2.90932" x2="0.75846" y2="10.4245" gradientUnits="userSpaceOnUse">
<stop stop-color="#C3E3FF"/>
<stop offset="0.2" stop-color="#198AEC"/>
<stop offset="0.4" stop-color="#C3E3FF"/>
<stop offset="0.6" stop-color="#198AEC"/>
<stop offset="0.8" stop-color="#C3E3FF" stop-opacity="0.890196"/>
<stop offset="1" stop-color="#198AEC"/>
</linearGradient>
</defs>
</svg>
