<svg width="1440" height="350" viewBox="0 0 1440 350" fill="none" xmlns="http://www.w3.org/2000/svg">
<path d="M1428.73 0.501067C1418.96 0.501067 1394.46 0.396356 1384.78 0.501067C1382.55 0.527245 1378.93 0.309097 1375.06 2.64763C1369.94 5.7366 1367.94 13.6161 1365.76 19.6893C1361.24 32.2982 1349.33 43.956 1334.92 51.7656C1324.13 57.612 1306.46 63.0918 1297.95 60.1687C1281.26 54.4183 1285.21 40.0904 1284.37 10.1257C1284.22 4.78548 1279.7 0.501067 1274.02 0.501067C1261.46 0.501067 1238.3 0.457437 1226.25 0.501067C1215.6 0.53597 1214.38 11.8447 1210.9 19.6893C1201.53 40.8059 1183.12 52.7342 1161.37 58.9732C1155.97 60.5264 1149.53 61.5561 1144.41 63.2489C1137.23 65.6223 1135.63 69.1127 1135.65 76.1545C1135.68 89.3131 1135.45 111.267 1135.36 125.054C1135.3 135.063 1140.65 137.515 1149.54 137.035C1154.34 136.773 1161.63 135.595 1166.36 134.478C1175.33 132.367 1185.06 128.126 1193.74 129.4C1201.47 130.543 1207.31 137.105 1207.31 148.352C1207.31 210.952 1207.4 270.332 1207.68 331.928C1208.15 337.233 1211.62 340.488 1216.75 341.203L1274.16 341.221C1277.84 340.933 1280.57 339.807 1282.37 337.198C1283.43 335.654 1284.56 332.669 1284.55 330.444C1284.45 276.126 1284.64 216.51 1284.71 159.984C1286.23 136.651 1302.84 138.492 1320.43 134.731C1337.58 131.066 1358.78 119.906 1362.28 147.113C1362.88 208.744 1362.51 270.332 1362.79 331.928C1363.26 337.215 1366.7 340.488 1371.86 341.203C1371.86 341.203 1411.78 341.203 1430.28 341.203C1433.4 341.203 1439.74 338.306 1439.79 330.828C1440.22 258.883 1439.84 11.3822 1439.84 11.3822C1439.84 4.0525 1433.48 0.518519 1428.7 0.518519L1428.73 0.501067Z" fill="white"/>
<path d="M1087.44 0.540761L1033.25 0.514583C1028.17 0.514583 1022.58 4.10092 1022.58 10.0694V10.1043C1022.57 25.8458 1022.56 56.8925 1022.58 71.744C1022.68 109.283 992.589 92.2149 973.233 91.0893C935.228 88.8816 898.376 104.466 875.642 136.935C870.188 144.727 861.619 164.814 852.665 167.415C847.525 168.907 844.776 166.193 841.425 162.554C835.308 155.931 838.345 121.316 837.175 107.267C837.175 101.299 831.59 97.7035 826.52 97.7035L782.136 97.686C779.989 97.6075 777.825 97.5988 775.661 97.686H772.519C768.034 97.686 763.164 100.478 762.073 105.251C761.663 106.613 761.462 108.166 761.462 109.946V241C761.462 260.206 751.601 279.202 731.137 283.006C705.166 287.832 692.216 265.677 692.216 243.417V110.487C692.137 109.361 692.085 108.236 691.937 107.267C691.937 101.299 686.352 97.7035 681.281 97.7035L626.844 97.6773C621.765 97.6773 616.18 101.264 616.18 107.232V107.267C615.055 124.92 618.624 166.228 610.726 176.961C603.055 187.379 594.032 174.919 590.559 168.366C584.005 155.984 579.938 146.193 571.203 135.033C524.48 75.3216 425.493 77.8608 380.987 129.806C373.578 138.453 368.517 146.455 362.294 156.307C358.655 162.083 350.051 168.505 343.55 164.099C337.074 159.71 336.254 146.996 336.254 139.893C336.254 97.2148 336.254 52.4947 336.053 10.0869C336.053 4.11837 330.468 0.523309 325.398 0.523309L271.1 0.497131C266.022 0.497131 260.436 4.08347 260.436 10.052V10.0869C260.436 52.2329 260.436 100.33 260.515 145.006C260.524 150.46 259.991 154.771 258.735 160.259C256.413 170.355 250.401 179.456 240.889 169.038C235.181 162.79 232.04 153.916 227.982 146.568C210.048 114.152 183.336 96.9967 146.989 92.1974C68.9465 81.9009 6.39351 127.947 0.206285 207.51C-0.0816961 211.192 -0.055516 226.681 0.206285 232.798C2.37051 283.015 31.1861 340.649 104.9 348.424C149.564 353.136 198.512 340.292 224.133 301.261C229.396 293.251 234.693 278.041 243.262 272.701C249.598 268.757 256.972 272.247 258.866 284.586C261.292 300.38 260.41 316.374 260.41 332.377C260.41 336.365 264.782 341.208 268.762 341.217C287.428 341.26 307.761 341.452 326.454 341.217C332.24 341.147 335.53 337.281 335.931 331.383C337.266 312.064 333.051 287.02 342.703 278.207C346.272 274.952 350.025 275.328 354.091 277.518C362.312 281.942 367.434 294.271 372.932 301.837C420.135 366.845 532.02 365.37 576.91 297.736C583.22 288.233 587.051 278.286 591.868 268.67C594.18 264.045 601.807 255.075 609.024 259.891C617.097 265.267 618.493 278.539 621.242 287.125C636.828 335.929 679.554 356.478 728.414 346.88C734.959 345.597 740.099 343.625 746.671 342.368C759.185 339.986 801.989 341.382 827.942 341.208C834.54 341.164 836.739 336.496 837.393 330.24C838.807 316.706 834.156 288.137 843.17 277.954C850.318 269.883 859.437 279.298 863.294 285.484C867.754 292.64 871.515 300.196 876.358 307.029C900.226 340.667 943.117 354.332 983.391 347.752C993.566 346.086 1003.14 342.107 1013.53 341.452C1027.26 340.588 1064.48 342.028 1089.39 341.051C1094.67 340.841 1097.82 336.042 1098.08 330.877V10.1043C1098.08 4.13582 1092.5 0.540761 1087.42 0.540761H1087.44ZM249.676 233.077C239.763 238.914 210.31 234.839 178.292 236.393C164.609 237.056 166.965 249.595 162.933 259.516C155.009 279.027 136.09 288.111 115.469 283.923C61.939 273.024 62.6894 161.594 119.771 155.783C138.961 153.828 154.424 161.717 161.249 180.137C164.286 188.348 162.724 201.149 174.138 201.594C192.822 202.318 221.995 201.637 231.804 201.838C238.655 201.978 246.203 202.283 251.701 206.751C261.545 214.744 257.731 228.33 249.659 233.086L249.676 233.077ZM515.797 254.106C499.784 295.135 447.266 295.973 431.253 254.621C418.896 222.719 425.127 160.224 468.254 156.045C519.707 151.054 530.135 217.379 515.806 254.106H515.797ZM979.438 284.708C914.755 288.181 911.326 161.821 973.364 156.053C1040.74 149.788 1042.36 281.331 979.438 284.708Z" fill="white"/>
</svg>
