<svg width="37" height="24" viewBox="0 0 37 24" fill="none" xmlns="http://www.w3.org/2000/svg">
<path d="M21.4034 0.0732833C20.672 0.195541 20.5209 1.25769 20.152 1.85556C19.3847 3.09887 18.2191 3.6938 16.8699 4.13626C16.4678 4.268 15.6704 4.32133 15.4234 4.64034C14.9063 5.30801 15.5318 6.70847 14.9202 7.45936C14.1942 8.35028 12.8439 7.24069 12.0482 6.93357C6.99885 4.98388 1.25218 7.59111 0.2137 13.0533C-0.709832 17.9103 1.34521 23.0894 6.66686 23.8665C11.2309 24.5329 15.5206 22.7298 16.4733 17.8943C16.5808 17.3498 16.816 16.6117 16.0408 16.5199L12.1696 16.5534C11.599 16.823 11.6215 17.4524 11.4135 17.9644C10.9888 19.0099 10.0974 19.789 8.9493 19.9069C4.15954 20.3978 3.56745 11.6113 7.76533 10.563C9.29612 10.1808 10.6773 10.7849 11.2691 12.262C11.5575 12.9822 11.3782 13.6232 12.3513 13.7079C13.0352 13.7676 15.3494 13.8095 15.9503 13.6884C16.6587 13.5456 16.4259 12.7762 16.3307 12.2581C16.1644 11.352 15.424 10.0346 16.3692 9.34067C16.7776 9.04086 18.7901 8.44462 19.2926 8.50395C20.0072 8.58869 20.2013 9.3061 20.2651 9.91455L20.3004 22.9507C20.4039 23.3035 20.6812 23.4165 21.0245 23.4544C21.8194 23.5425 23.5396 23.5257 24.3512 23.4566C25.001 23.4013 25.199 23.2036 25.2543 22.5539L25.2492 10.7774C25.4007 9.01272 26.8235 9.27261 28.1292 8.9619C29.4685 8.64344 30.865 7.74805 31.1035 9.91455L31.1388 22.9507C31.2423 23.3035 31.5195 23.4165 31.8629 23.4544C32.6428 23.5409 34.4709 23.5328 35.258 23.4532C35.9267 23.3855 36.0478 23.1081 36.0932 22.4824V1.02779C36.0549 0.507892 36.0006 0.125306 35.4054 0.0541975C34.7286 -0.026617 33.1348 -0.00862307 32.4382 0.0529966C31.4601 0.139482 31.4896 0.985364 31.0697 1.71837C30.32 3.02645 28.5719 4.1115 27.0759 4.29832C24.6879 4.59639 25.3955 2.33663 25.2509 0.887317C25.2039 0.41519 25.0829 0.115925 24.567 0.0543053C23.9696 -0.0170209 21.9765 -0.0226908 21.4034 0.0732833Z" fill="#198AEC"/>
</svg>
